; NON-PLATED HOLES START AT T1
; THROUGH (PLATED) HOLES START AT T100
M48
INCH
T100C0.032000
T101C0.030000
T102C0.015748
T103C0.038000
T104C0.040000
T105C0.035000
%
T100
X029194Y019675
X028194Y019675
X028694Y018925
T101
X029194Y014674
X028194Y014674
X013194Y018677
X029194Y015675
X028194Y015675
X013194Y017675
T102
X007211Y019649
X025194Y016676
X012194Y019676
X026194Y016676
X022194Y015676
X019194Y017676
X023343Y016638
X026194Y019676
X016200Y018666
T103
X010194Y020675
X032194Y017675
X013194Y000676
X009194Y000676
X028194Y000676
X010194Y000676
X025194Y000676
X024194Y000676
X017194Y014675
X018194Y000676
X012194Y020675
X021194Y000676
X008194Y020675
X011194Y020675
X015194Y000676
X031194Y017675
X014194Y000676
X012194Y000676
X027194Y000676
X011194Y000676
X026194Y000676
X031194Y019675
X023194Y000676
X019194Y000676
X013194Y020675
X022194Y000676
X009194Y020675
X017194Y000676
X031194Y020675
X020194Y000676
X016194Y000676
T104
X022194Y018675
X021194Y019675
X022194Y019675
X023194Y018675
X023194Y019675
X021194Y018675
T105
X004194Y017675
X031194Y005676
X004194Y021675
X011189Y011700
X018189Y011700
X016189Y011700
X014189Y011700
X012189Y011700
X010189Y011700
X019189Y011700
X017189Y011700
X015189Y011700
X013189Y011700
X011189Y008700
X018189Y008700
X016189Y008700
X014189Y008700
X012189Y008700
X010189Y008700
X019189Y008700
X017189Y008700
X015189Y008700
X013189Y008700
X031194Y006676
X021189Y011700
X022189Y011700
X020189Y011700
X023189Y011700
X021189Y008700
X031194Y004676
X022189Y008700
X020189Y008700
X023189Y008700
X031194Y015675
X032194Y015675
T00
M30
