G04 MADE WITH FRITZING*
G04 WWW.FRITZING.ORG*
G04 DOUBLE SIDED*
G04 HOLES PLATED*
G04 CONTOUR ON CENTER OF CONTOUR VECTOR*
%ASAXBY*%
%FSLAX23Y23*%
%MOIN*%
%OFA0B0*%
%SFA1.0B1.0*%
%ADD10C,0.078000*%
%ADD11C,0.039370*%
%ADD12C,0.075000*%
%ADD13C,0.070000*%
%ADD14C,0.074000*%
%ADD15R,0.075000X0.075000*%
%ADD16R,0.078000X0.078000*%
%ADD17C,0.024000*%
%ADD18R,0.001000X0.001000*%
%LNCOPPER0*%
G90*
G70*
G54D10*
X819Y2068D03*
X919Y2068D03*
X1019Y2068D03*
X1119Y2068D03*
X1219Y2068D03*
X1319Y2068D03*
G54D11*
X1620Y1867D03*
X1919Y1768D03*
X721Y1965D03*
X1219Y1968D03*
X2619Y1668D03*
X2219Y1568D03*
X2334Y1664D03*
X2519Y1668D03*
X2619Y1968D03*
G54D12*
X419Y2168D03*
X419Y1768D03*
G54D13*
X2919Y1568D03*
X2919Y1467D03*
G54D12*
X3119Y468D03*
X3119Y568D03*
X3119Y668D03*
G54D10*
X3119Y1768D03*
X3219Y1768D03*
G54D14*
X2819Y1968D03*
X2869Y1893D03*
X2919Y1968D03*
G54D12*
X3119Y1568D03*
X3219Y1568D03*
G54D13*
X2819Y1568D03*
X2819Y1467D03*
X1319Y1768D03*
X1319Y1868D03*
G54D10*
X1719Y1468D03*
X3119Y2068D03*
X3119Y1968D03*
G54D12*
X1019Y870D03*
X1019Y1170D03*
X1119Y870D03*
X1119Y1170D03*
X1219Y870D03*
X1219Y1170D03*
X1319Y870D03*
X1319Y1170D03*
X1419Y870D03*
X1419Y1170D03*
X1519Y870D03*
X1519Y1170D03*
X1619Y870D03*
X1619Y1170D03*
X1719Y870D03*
X1719Y1170D03*
X1819Y870D03*
X1819Y1170D03*
X1919Y870D03*
X1919Y1170D03*
X2019Y870D03*
X2019Y1170D03*
X2119Y870D03*
X2119Y1170D03*
X2219Y870D03*
X2219Y1170D03*
X2319Y870D03*
X2319Y1170D03*
G54D10*
X919Y68D03*
X1019Y68D03*
X1119Y68D03*
X1219Y68D03*
X1319Y68D03*
X1419Y68D03*
X1519Y68D03*
X1619Y68D03*
X1719Y68D03*
X1819Y68D03*
X1919Y68D03*
X2019Y68D03*
X2119Y68D03*
X2219Y68D03*
X2319Y68D03*
X2419Y68D03*
X2519Y68D03*
X2619Y68D03*
X2719Y68D03*
X2819Y68D03*
G54D14*
X2319Y1968D03*
X2319Y1868D03*
X2219Y1968D03*
X2219Y1868D03*
X2119Y1968D03*
X2119Y1868D03*
G54D15*
X3119Y568D03*
G54D16*
X3119Y1768D03*
G54D15*
X3119Y1568D03*
X1019Y870D03*
G54D17*
X1319Y2037D02*
X1319Y1894D01*
D02*
X1821Y2166D02*
X1819Y1199D01*
D02*
X1021Y2166D02*
X1821Y2166D01*
D02*
X1020Y2098D02*
X1021Y2166D01*
D02*
X1620Y1848D02*
X1619Y1199D01*
D02*
X1021Y2166D02*
X1020Y2098D01*
D02*
X448Y2168D02*
X1021Y2166D01*
D02*
X2097Y1946D02*
X1933Y1781D01*
D02*
X889Y2068D02*
X850Y2068D01*
D02*
X1219Y1987D02*
X1219Y2037D01*
D02*
X1922Y666D02*
X1919Y841D01*
D02*
X3091Y668D02*
X1922Y666D01*
D02*
X1819Y467D02*
X1819Y841D01*
D02*
X3091Y468D02*
X1819Y467D01*
D02*
X3219Y1265D02*
X2938Y1549D01*
D02*
X3219Y565D02*
X3219Y1265D01*
D02*
X3148Y567D02*
X3219Y565D01*
D02*
X1717Y1470D02*
X1719Y1199D01*
D02*
X1698Y1489D02*
X1717Y1470D01*
D02*
X2893Y1467D02*
X2846Y1467D01*
D02*
X2893Y1568D02*
X2846Y1568D01*
D02*
X1819Y1168D02*
X1825Y1142D01*
D02*
X1620Y872D02*
X1819Y1168D01*
D02*
X1635Y894D02*
X1620Y872D01*
D02*
X1517Y71D02*
X1132Y844D01*
D02*
X1502Y92D02*
X1517Y71D01*
D02*
X118Y71D02*
X889Y68D01*
D02*
X118Y1670D02*
X118Y71D01*
D02*
X1517Y1670D02*
X118Y1670D01*
D02*
X1519Y1199D02*
X1517Y1670D01*
D02*
X1119Y565D02*
X1404Y93D01*
D02*
X618Y565D02*
X1119Y565D01*
D02*
X618Y1169D02*
X618Y565D01*
D02*
X1017Y1169D02*
X618Y1169D01*
D02*
X994Y1155D02*
X1017Y1169D01*
D02*
X1017Y469D02*
X1301Y92D01*
D02*
X522Y469D02*
X1017Y469D01*
D02*
X522Y1265D02*
X522Y469D01*
D02*
X1119Y1265D02*
X522Y1265D01*
D02*
X1119Y1199D02*
X1119Y1265D01*
D02*
X1017Y366D02*
X1203Y92D01*
D02*
X419Y366D02*
X1017Y366D01*
D02*
X419Y1368D02*
X419Y366D01*
D02*
X1222Y1368D02*
X419Y1368D01*
D02*
X1219Y1199D02*
X1222Y1368D01*
D02*
X920Y270D02*
X1098Y89D01*
D02*
X317Y270D02*
X920Y270D01*
D02*
X317Y1470D02*
X317Y270D01*
D02*
X1318Y1470D02*
X317Y1470D01*
D02*
X1319Y1199D02*
X1318Y1470D01*
D02*
X918Y167D02*
X998Y89D01*
D02*
X220Y167D02*
X918Y167D01*
D02*
X220Y1567D02*
X220Y167D01*
D02*
X1421Y1567D02*
X220Y1567D01*
D02*
X1419Y1199D02*
X1421Y1567D01*
D02*
X1606Y95D02*
X1232Y844D01*
D02*
X1706Y95D02*
X1332Y844D01*
D02*
X1806Y95D02*
X1432Y844D01*
D02*
X1906Y95D02*
X1532Y844D01*
D02*
X3091Y1568D02*
X2946Y1568D01*
D02*
X3219Y1596D02*
X3219Y1737D01*
D02*
X3119Y1596D02*
X3119Y1737D01*
D02*
X1293Y1768D02*
X448Y1768D01*
D02*
X2719Y1768D02*
X2719Y1968D01*
D02*
X2719Y1968D02*
X2792Y1968D01*
D02*
X2719Y1468D02*
X2719Y1768D01*
D02*
X2793Y1467D02*
X2719Y1468D01*
D02*
X1200Y1967D02*
X740Y1965D01*
D02*
X2619Y1068D02*
X2019Y1068D01*
D02*
X2019Y1068D02*
X2019Y1141D01*
D02*
X2619Y1649D02*
X2619Y1068D01*
D02*
X2228Y1585D02*
X2320Y1766D01*
D02*
X2320Y1766D02*
X2320Y1836D01*
D02*
X2119Y1568D02*
X2119Y1199D01*
D02*
X2219Y1768D02*
X2119Y1568D01*
D02*
X2219Y1836D02*
X2219Y1768D01*
D02*
X2819Y2068D02*
X2819Y1995D01*
D02*
X3089Y2068D02*
X2819Y2068D01*
D02*
X3089Y1968D02*
X2947Y1968D01*
D02*
X3119Y1798D02*
X3119Y1937D01*
D02*
X2719Y1768D02*
X2350Y1860D01*
D02*
X2719Y1968D02*
X2719Y1768D01*
D02*
X2792Y1968D02*
X2719Y1968D01*
D02*
X2501Y1667D02*
X2353Y1664D01*
D02*
X2351Y1968D02*
X2600Y1968D01*
G54D18*
X2282Y2004D02*
X2355Y2004D01*
X2282Y2003D02*
X2355Y2003D01*
X2282Y2002D02*
X2355Y2002D01*
X2282Y2001D02*
X2355Y2001D01*
X2282Y2000D02*
X2355Y2000D01*
X2282Y1999D02*
X2355Y1999D01*
X2282Y1998D02*
X2355Y1998D01*
X2282Y1997D02*
X2355Y1997D01*
X2282Y1996D02*
X2355Y1996D01*
X2282Y1995D02*
X2355Y1995D01*
X2282Y1994D02*
X2355Y1994D01*
X2282Y1993D02*
X2355Y1993D01*
X2282Y1992D02*
X2355Y1992D01*
X2282Y1991D02*
X2355Y1991D01*
X2282Y1990D02*
X2355Y1990D01*
X2282Y1989D02*
X2355Y1989D01*
X2282Y1988D02*
X2355Y1988D01*
X2282Y1987D02*
X2313Y1987D01*
X2325Y1987D02*
X2355Y1987D01*
X2282Y1986D02*
X2310Y1986D01*
X2328Y1986D02*
X2355Y1986D01*
X2282Y1985D02*
X2308Y1985D01*
X2329Y1985D02*
X2355Y1985D01*
X2282Y1984D02*
X2306Y1984D01*
X2331Y1984D02*
X2355Y1984D01*
X2282Y1983D02*
X2305Y1983D01*
X2332Y1983D02*
X2355Y1983D01*
X2282Y1982D02*
X2304Y1982D01*
X2333Y1982D02*
X2355Y1982D01*
X2282Y1981D02*
X2303Y1981D01*
X2334Y1981D02*
X2355Y1981D01*
X2282Y1980D02*
X2302Y1980D01*
X2335Y1980D02*
X2355Y1980D01*
X2282Y1979D02*
X2302Y1979D01*
X2336Y1979D02*
X2355Y1979D01*
X2282Y1978D02*
X2301Y1978D01*
X2336Y1978D02*
X2355Y1978D01*
X2282Y1977D02*
X2301Y1977D01*
X2337Y1977D02*
X2355Y1977D01*
X2282Y1976D02*
X2300Y1976D01*
X2337Y1976D02*
X2355Y1976D01*
X2282Y1975D02*
X2300Y1975D01*
X2338Y1975D02*
X2355Y1975D01*
X2282Y1974D02*
X2299Y1974D01*
X2338Y1974D02*
X2355Y1974D01*
X2282Y1973D02*
X2299Y1973D01*
X2339Y1973D02*
X2355Y1973D01*
X2282Y1972D02*
X2299Y1972D01*
X2339Y1972D02*
X2355Y1972D01*
X2282Y1971D02*
X2299Y1971D01*
X2339Y1971D02*
X2355Y1971D01*
X2282Y1970D02*
X2298Y1970D01*
X2339Y1970D02*
X2355Y1970D01*
X2282Y1969D02*
X2298Y1969D01*
X2339Y1969D02*
X2355Y1969D01*
X2282Y1968D02*
X2298Y1968D01*
X2339Y1968D02*
X2355Y1968D01*
X2282Y1967D02*
X2298Y1967D01*
X2339Y1967D02*
X2355Y1967D01*
X2282Y1966D02*
X2298Y1966D01*
X2339Y1966D02*
X2355Y1966D01*
X2282Y1965D02*
X2299Y1965D01*
X2339Y1965D02*
X2355Y1965D01*
X2282Y1964D02*
X2299Y1964D01*
X2339Y1964D02*
X2355Y1964D01*
X2282Y1963D02*
X2299Y1963D01*
X2339Y1963D02*
X2355Y1963D01*
X2282Y1962D02*
X2299Y1962D01*
X2338Y1962D02*
X2355Y1962D01*
X2282Y1961D02*
X2300Y1961D01*
X2338Y1961D02*
X2355Y1961D01*
X2282Y1960D02*
X2300Y1960D01*
X2338Y1960D02*
X2355Y1960D01*
X2282Y1959D02*
X2300Y1959D01*
X2337Y1959D02*
X2355Y1959D01*
X2282Y1958D02*
X2301Y1958D01*
X2337Y1958D02*
X2355Y1958D01*
X2282Y1957D02*
X2302Y1957D01*
X2336Y1957D02*
X2355Y1957D01*
X2282Y1956D02*
X2302Y1956D01*
X2335Y1956D02*
X2355Y1956D01*
X2282Y1955D02*
X2303Y1955D01*
X2334Y1955D02*
X2355Y1955D01*
X2282Y1954D02*
X2304Y1954D01*
X2334Y1954D02*
X2355Y1954D01*
X2282Y1953D02*
X2305Y1953D01*
X2332Y1953D02*
X2355Y1953D01*
X2282Y1952D02*
X2306Y1952D01*
X2331Y1952D02*
X2355Y1952D01*
X2282Y1951D02*
X2308Y1951D01*
X2330Y1951D02*
X2355Y1951D01*
X2282Y1950D02*
X2310Y1950D01*
X2328Y1950D02*
X2355Y1950D01*
X2282Y1949D02*
X2312Y1949D01*
X2325Y1949D02*
X2355Y1949D01*
X2282Y1948D02*
X2317Y1948D01*
X2320Y1948D02*
X2355Y1948D01*
X2282Y1947D02*
X2355Y1947D01*
X2282Y1946D02*
X2355Y1946D01*
X2282Y1945D02*
X2355Y1945D01*
X2282Y1944D02*
X2355Y1944D01*
X2282Y1943D02*
X2355Y1943D01*
X2282Y1942D02*
X2355Y1942D01*
X2282Y1941D02*
X2355Y1941D01*
X2282Y1940D02*
X2355Y1940D01*
X2282Y1939D02*
X2355Y1939D01*
X2282Y1938D02*
X2355Y1938D01*
X2282Y1937D02*
X2355Y1937D01*
X2282Y1936D02*
X2355Y1936D01*
X2282Y1935D02*
X2355Y1935D01*
X2282Y1934D02*
X2355Y1934D01*
X2282Y1933D02*
X2355Y1933D01*
X2282Y1932D02*
X2355Y1932D01*
X2283Y1931D02*
X2355Y1931D01*
D02*
G04 End of Copper0*
M02*